# xmcd CD database file
#
# Track frame offsets:
#	150
#	23717
#	42835
#
# Disc length: 829 seconds
#
# Revision: 0
# Processed by: cddbd v1.4PL0 Copyright (c) Steve Scherf et al.
# Submitted via: CDex 1.50
#
DISCID=19033b03
DTITLE=Jimnobety - Himegoto Hanabi
DYEAR=2003
DGENRE=Jazz
TTITLE0=Himegoto Hanabi
TTITLE1=Jyu/To/Vu
TTITLE2=Koi ha Kigeki
EXTD=YEAR: 2003
EXTT0=
EXTT1=
EXTT2=
PLAYORDER=
